# xmcd CD database file
#
# Track frame offsets:
#	150
#	9625
#	24832
#	52415
#	82507
#	105845
#	126495
#
# Disc length: 2076 seconds
#
# Revision: 2
# Processed by: cddbd v1.5.1PL2 Copyright (c) Steve Scherf et al.
# Submitted via: CDex 1.51
#
DISCID=49081a07
DTITLE=SIMONE Nina - The Rising Sun Collection
DYEAR=1980
DGENRE=
TTITLE0=Stars
TTITLE1=That's All
TTITLE2=Ain't Got No
TTITLE3=Be My Husband
TTITLE4=See Line Woman
TTITLE5=Let It Be Me
TTITLE6=Mississippi Goddam
EXTD=YEAR: 1980
EXTT0=
EXTT1=
EXTT2=
EXTT3=
EXTT4=
EXTT5=
EXTT6=
PLAYORDER=
